<svg xmlns="http://www.w3.org/2000/svg" viewBox="0 0 24 24" fill="#1E88E5">
  <path d="M12 2C10.896 2 10 2.896 10 4s.896 2 2 2 2-.896 2-2-.896-2-2-2zM7 4c-1.104 0-2 .896-2 2s.896 2 2 2 2-.896 2-2-.896-2-2-2zm10 0c-1.104 0-2 .896-2 2s.896 2 2 2 2-.896 2-2-.896-2-2-2zM4 8c-1.104 0-2 .896-2 2s.896 2 2 2 2-.896 2-2-.896-2-2-2zm16 0c-1.104 0-2 .896-2 2s.896 2 2 2 2-.896 2-2-.896-2-2-2zM12 9c-3.86 0-7 3.14-7 7 0 2.21 1.03 4.18 2.64 5.45.18.15.42.22.65.18.24-.04.45-.18.58-.39l2.13-3.55c.13-.22.2-.47.2-.73 0-.83-.67-1.5-1.5-1.5S8.2 15.13 8.2 15.96c0 .26.07.51.2.73l-1.65 2.75C5.63 18.24 5 17.18 5 16c0-2.76 2.24-5 5-5h4c2.76 0 5 2.24 5 5 0 1.18-.63 2.24-1.75 3.44l-1.65-2.75c.13-.22.2-.47.2-.73 0-.83-.67-1.5-1.5-1.5s-1.5.67-1.5 1.5c0 .26.07.51.2.73l2.13 3.55c.13.21.34.35.58.39.23.04.47-.03.65-.18C18.97 20.18 20 18.21 20 16c0-3.86-3.14-7-7-7z" />
</svg>
